<?xml version="1.0" encoding="UTF-8" standalone="no"?>
<!DOCTYPE svg PUBLIC "-//W3C//DTD SVG 1.1//EN"
 "http://www.w3.org/Graphics/SVG/1.1/DTD/svg11.dtd">
<!-- Generated by graphviz version 12.2.1 (20241206.2353)
 -->
<!-- Title: G Pages: 1 -->
<svg width="680pt" height="845pt"
 viewBox="0.00 0.00 680.17 845.13" xmlns="http://www.w3.org/2000/svg" xmlns:xlink="http://www.w3.org/1999/xlink">
<g id="graph0" class="graph" transform="scale(1 1) rotate(0) translate(4 841.13)">
<title>G</title><style>.edge>path:hover{stroke-width:8}</style>
<polygon fill="white" stroke="none" points="-4,4 -4,-841.13 676.17,-841.13 676.17,4 -4,4"/>
<!-- app_py -->
<g id="node1" class="node">
<title>app_py</title><style>.edge>path:hover{stroke-width:8}</style>
<ellipse fill="#995252" stroke="black" cx="452.38" cy="-18" rx="27" ry="18"/>
<text text-anchor="middle" x="452.38" y="-14.12" font-family="Helvetica,sans-Serif" font-size="10.00" fill="#ffffff">app.py</text>
</g>
<!-- condition -->
<g id="node2" class="node">
<title>condition</title><style>.edge>path:hover{stroke-width:8}</style>
<ellipse fill="#75a446" stroke="black" cx="260.38" cy="-127" rx="32.54" ry="18"/>
<text text-anchor="middle" x="260.38" y="-123.12" font-family="Helvetica,sans-Serif" font-size="10.00" fill="#000000">condition</text>
</g>
<!-- condition&#45;&gt;app_py -->
<g id="edge1" class="edge">
<title>condition&#45;&gt;app_py</title><style>.edge>path:hover{stroke-width:8}</style>
<path fill="none" stroke="black" d="M452.38,-72C455.05,-64.29 455.87,-55.56 455.8,-47.45"/>
<polygon fill="#75a446" stroke="black" points="459.31,-47.48 455.26,-37.69 452.32,-47.87 459.31,-47.48"/>
<path fill="none" stroke="black" d="M292.39,-123.18C344.21,-117.75 441.78,-103.55 452.38,-73"/>
</g>
<!-- condition_filter_routes -->
<g id="node3" class="node">
<title>condition_filter_routes</title><style>.edge>path:hover{stroke-width:8}</style>
<ellipse fill="#80b34c" stroke="black" cx="47.38" cy="-202.57" rx="47.38" ry="21.57"/>
<text text-anchor="middle" x="47.38" y="-204.32" font-family="Helvetica,sans-Serif" font-size="10.00" fill="#000000">condition.</text>
<text text-anchor="middle" x="47.38" y="-193.07" font-family="Helvetica,sans-Serif" font-size="10.00" fill="#000000">filter_routes</text>
</g>
<!-- condition_filter_routes&#45;&gt;condition -->
<g id="edge2" class="edge">
<title>condition_filter_routes&#45;&gt;condition</title><style>.edge>path:hover{stroke-width:8}</style>
<path fill="none" stroke="black" d="M83.83,-188.3C90.65,-185.85 97.72,-183.33 104.38,-181 144.58,-166.92 190.81,-151.28 222.44,-140.67"/>
<polygon fill="#80b34c" stroke="black" points="223.18,-144.11 231.55,-137.61 220.96,-137.47 223.18,-144.11"/>
</g>
<!-- condition_finalize_condition -->
<g id="node4" class="node">
<title>condition_finalize_condition</title><style>.edge>path:hover{stroke-width:8}</style>
<ellipse fill="#80b34c" stroke="black" cx="177.38" cy="-202.57" rx="64.35" ry="21.57"/>
<text text-anchor="middle" x="177.38" y="-204.32" font-family="Helvetica,sans-Serif" font-size="10.00" fill="#000000">condition.</text>
<text text-anchor="middle" x="177.38" y="-193.07" font-family="Helvetica,sans-Serif" font-size="10.00" fill="#000000">finalize_condition</text>
</g>
<!-- condition_finalize_condition&#45;&gt;condition -->
<g id="edge3" class="edge">
<title>condition_finalize_condition&#45;&gt;condition</title><style>.edge>path:hover{stroke-width:8}</style>
<path fill="none" stroke="black" d="M199.62,-181.85C210.53,-172.18 223.73,-160.49 235.03,-150.47"/>
<polygon fill="#80b34c" stroke="black" points="237.31,-153.12 242.47,-143.87 232.67,-147.88 237.31,-153.12"/>
</g>
<!-- condition_update_condition_temp -->
<g id="node5" class="node">
<title>condition_update_condition_temp</title><style>.edge>path:hover{stroke-width:8}</style>
<ellipse fill="#80b34c" stroke="black" cx="342.38" cy="-202.57" rx="82.38" ry="21.57"/>
<text text-anchor="middle" x="342.38" y="-204.32" font-family="Helvetica,sans-Serif" font-size="10.00" fill="#000000">condition.</text>
<text text-anchor="middle" x="342.38" y="-193.07" font-family="Helvetica,sans-Serif" font-size="10.00" fill="#000000">update_condition_temp</text>
</g>
<!-- condition_update_condition_temp&#45;&gt;condition -->
<g id="edge4" class="edge">
<title>condition_update_condition_temp&#45;&gt;condition</title><style>.edge>path:hover{stroke-width:8}</style>
<path fill="none" stroke="black" d="M319.97,-181.46C309.27,-171.86 296.42,-160.34 285.4,-150.45"/>
<polygon fill="#80b34c" stroke="black" points="287.94,-148.03 278.16,-143.95 283.26,-153.24 287.94,-148.03"/>
</g>
<!-- flask -->
<g id="node6" class="node">
<title>flask</title><style>.edge>path:hover{stroke-width:8}</style>
<polygon fill="blue" stroke="black" points="479.38,-333.13 425.38,-333.13 425.38,-297.13 479.38,-297.13 479.38,-333.13"/>
<text text-anchor="middle" x="452.38" y="-311.26" font-family="Helvetica,sans-Serif" font-size="10.00" fill="white">flask</text>
</g>
<!-- flask&#45;&gt;app_py -->
<g id="edge5" class="edge">
<title>flask&#45;&gt;app_py</title><style>.edge>path:hover{stroke-width:8}</style>
<path fill="none" stroke="black" d="M452.38,-260.13C432.34,-223.69 438.74,-112.29 452.38,-73"/>
</g>
<!-- flask&#45;&gt;condition_filter_routes -->
<g id="edge6" class="edge">
<title>flask&#45;&gt;condition_filter_routes</title><style>.edge>path:hover{stroke-width:8}</style>
<path fill="none" stroke="black" d="M456.42,-296.86C458.04,-285.95 458.32,-271.94 452.38,-261.13"/>
<path fill="none" stroke="black" d="M452.38,-260.13C433.65,-226.07 142.27,-232.79 104.38,-224.13 100.62,-223.28 96.78,-222.24 92.94,-221.1"/>
<polygon fill="blue" stroke="black" points="94.28,-217.86 83.69,-218.12 92.13,-224.52 94.28,-217.86"/>
</g>
<!-- flask&#45;&gt;condition_finalize_condition -->
<g id="edge7" class="edge">
<title>flask&#45;&gt;condition_finalize_condition</title><style>.edge>path:hover{stroke-width:8}</style>
<path fill="none" stroke="black" d="M452.38,-260.13C430.52,-220.37 295.62,-234.22 251.38,-224.13 246.28,-222.97 241.01,-221.68 235.74,-220.34"/>
<polygon fill="blue" stroke="black" points="237,-217.05 226.44,-217.89 235.22,-223.82 237,-217.05"/>
</g>
<!-- flask&#45;&gt;condition_update_condition_temp -->
<g id="edge8" class="edge">
<title>flask&#45;&gt;condition_update_condition_temp</title><style>.edge>path:hover{stroke-width:8}</style>
<path fill="none" stroke="black" d="M452.38,-260.13C443.17,-243.38 427.06,-231.44 409.96,-222.99"/>
<polygon fill="blue" stroke="black" points="411.76,-219.96 401.21,-219.03 408.88,-226.34 411.76,-219.96"/>
</g>
<!-- routes_algorithms -->
<g id="node18" class="node">
<title>routes_algorithms</title><style>.edge>path:hover{stroke-width:8}</style>
<ellipse fill="#7f4cb3" stroke="black" cx="523.38" cy="-202.57" rx="43.13" ry="21.57"/>
<text text-anchor="middle" x="523.38" y="-204.32" font-family="Helvetica,sans-Serif" font-size="10.00" fill="#ffffff">routes.</text>
<text text-anchor="middle" x="523.38" y="-193.07" font-family="Helvetica,sans-Serif" font-size="10.00" fill="#ffffff">algorithms</text>
</g>
<!-- flask&#45;&gt;routes_algorithms -->
<g id="edge9" class="edge">
<title>flask&#45;&gt;routes_algorithms</title><style>.edge>path:hover{stroke-width:8}</style>
<path fill="none" stroke="black" d="M452.38,-260.13C443.11,-243.28 458.82,-229.63 477.8,-219.97"/>
<polygon fill="blue" stroke="black" points="479.24,-223.16 486.85,-215.79 476.3,-216.81 479.24,-223.16"/>
</g>
<!-- routes_map -->
<g id="node19" class="node">
<title>routes_map</title><style>.edge>path:hover{stroke-width:8}</style>
<ellipse fill="#7f4cb3" stroke="black" cx="622.38" cy="-202.57" rx="38.31" ry="18"/>
<text text-anchor="middle" x="622.38" y="-198.69" font-family="Helvetica,sans-Serif" font-size="10.00" fill="#ffffff">routes.map</text>
</g>
<!-- flask&#45;&gt;routes_map -->
<g id="edge10" class="edge">
<title>flask&#45;&gt;routes_map</title><style>.edge>path:hover{stroke-width:8}</style>
<path fill="none" stroke="black" d="M452.38,-260.13C424.94,-210.22 521.84,-243.59 575.38,-224.13 578.62,-222.95 581.96,-221.66 585.29,-220.32"/>
<polygon fill="blue" stroke="black" points="586.51,-223.6 594.38,-216.5 583.8,-217.14 586.51,-223.6"/>
</g>
<!-- flask_app -->
<g id="node7" class="node">
<title>flask_app</title><style>.edge>path:hover{stroke-width:8}</style>
<polygon fill="blue" stroke="black" points="499.25,-765.13 443.5,-765.13 443.5,-729.13 499.25,-729.13 499.25,-765.13"/>
<text text-anchor="middle" x="471.38" y="-743.26" font-family="Helvetica,sans-Serif" font-size="10.00" fill="white">flask.app</text>
</g>
<!-- flask_app&#45;&gt;flask -->
<g id="edge11" class="edge">
<title>flask_app&#45;&gt;flask</title><style>.edge>path:hover{stroke-width:8}</style>
<path fill="none" stroke="black" d="M458.1,-728.97C422.06,-681.1 322.99,-540.74 291.38,-405.13 287.74,-389.55 282,-382.1 291.38,-369.13 319.13,-330.78 375.57,-319.7 413.69,-316.76"/>
<polygon fill="blue" stroke="black" points="413.6,-320.28 423.37,-316.18 413.18,-313.29 413.6,-320.28"/>
</g>
<!-- flask_ctx -->
<g id="node10" class="node">
<title>flask_ctx</title><style>.edge>path:hover{stroke-width:8}</style>
<polygon fill="blue" stroke="black" points="634.38,-693.13 580.38,-693.13 580.38,-657.13 634.38,-657.13 634.38,-693.13"/>
<text text-anchor="middle" x="607.38" y="-671.26" font-family="Helvetica,sans-Serif" font-size="10.00" fill="white">flask.ctx</text>
</g>
<!-- flask_app&#45;&gt;flask_ctx -->
<g id="edge12" class="edge">
<title>flask_app&#45;&gt;flask_ctx</title><style>.edge>path:hover{stroke-width:8}</style>
<path fill="none" stroke="black" d="M509.76,-726.38C528.6,-716.68 551.22,-705.04 569.93,-695.41"/>
<polygon fill="blue" stroke="black" points="508.19,-723.25 500.9,-730.94 511.39,-729.47 508.19,-723.25"/>
<polygon fill="blue" stroke="black" points="571.53,-698.52 578.82,-690.83 568.32,-692.3 571.53,-698.52"/>
</g>
<!-- flask_globals -->
<g id="node11" class="node">
<title>flask_globals</title><style>.edge>path:hover{stroke-width:8}</style>
<polygon fill="blue" stroke="black" points="545.75,-621.13 475,-621.13 475,-585.13 545.75,-585.13 545.75,-621.13"/>
<text text-anchor="middle" x="510.38" y="-599.26" font-family="Helvetica,sans-Serif" font-size="10.00" fill="white">flask.globals</text>
</g>
<!-- flask_app&#45;&gt;flask_globals -->
<g id="edge13" class="edge">
<title>flask_app&#45;&gt;flask_globals</title><style>.edge>path:hover{stroke-width:8}</style>
<path fill="none" stroke="black" d="M479.17,-717.74C486.01,-692.84 495.9,-656.84 502.7,-632.08"/>
<polygon fill="blue" stroke="black" points="475.83,-716.69 476.56,-727.26 482.58,-718.55 475.83,-716.69"/>
<polygon fill="blue" stroke="black" points="506,-633.27 505.28,-622.7 499.25,-631.42 506,-633.27"/>
</g>
<!-- flask_templating -->
<g id="node15" class="node">
<title>flask_templating</title><style>.edge>path:hover{stroke-width:8}</style>
<polygon fill="blue" stroke="black" points="361.88,-405.13 300.88,-405.13 300.88,-369.13 361.88,-369.13 361.88,-405.13"/>
<text text-anchor="middle" x="331.38" y="-388.88" font-family="Helvetica,sans-Serif" font-size="10.00" fill="white">flask.</text>
<text text-anchor="middle" x="331.38" y="-377.63" font-family="Helvetica,sans-Serif" font-size="10.00" fill="white">templating</text>
</g>
<!-- flask_app&#45;&gt;flask_templating -->
<g id="edge14" class="edge">
<title>flask_app&#45;&gt;flask_templating</title><style>.edge>path:hover{stroke-width:8}</style>
<path fill="none" stroke="black" d="M460.6,-718.57C434.52,-651.89 368.26,-482.46 342.17,-415.74"/>
<polygon fill="blue" stroke="black" points="457.17,-719.42 464.07,-727.46 463.69,-716.87 457.17,-719.42"/>
<polygon fill="blue" stroke="black" points="345.51,-414.68 338.61,-406.64 338.99,-417.22 345.51,-414.68"/>
</g>
<!-- flask_blueprints -->
<g id="node8" class="node">
<title>flask_blueprints</title><style>.edge>path:hover{stroke-width:8}</style>
<polygon fill="blue" stroke="black" points="572.38,-405.13 514.38,-405.13 514.38,-369.13 572.38,-369.13 572.38,-405.13"/>
<text text-anchor="middle" x="543.38" y="-388.88" font-family="Helvetica,sans-Serif" font-size="10.00" fill="white">flask.</text>
<text text-anchor="middle" x="543.38" y="-377.63" font-family="Helvetica,sans-Serif" font-size="10.00" fill="white">blueprints</text>
</g>
<!-- flask_blueprints&#45;&gt;flask -->
<g id="edge15" class="edge">
<title>flask_blueprints&#45;&gt;flask</title><style>.edge>path:hover{stroke-width:8}</style>
<path fill="none" stroke="black" d="M520.88,-368.83C509.73,-360.25 496.06,-349.74 483.89,-340.37"/>
<polygon fill="blue" stroke="black" points="486.19,-337.73 476.13,-334.4 481.92,-343.27 486.19,-337.73"/>
</g>
<!-- flask_config -->
<g id="node9" class="node">
<title>flask_config</title><style>.edge>path:hover{stroke-width:8}</style>
<ellipse fill="#53b6b6" stroke="black" cx="419.38" cy="-387.13" rx="39.2" ry="18"/>
<text text-anchor="middle" x="419.38" y="-383.26" font-family="Helvetica,sans-Serif" font-size="10.00" fill="#000000">flask.config</text>
</g>
<!-- flask_config&#45;&gt;flask -->
<g id="edge16" class="edge">
<title>flask_config&#45;&gt;flask</title><style>.edge>path:hover{stroke-width:8}</style>
<path fill="none" stroke="black" d="M427.36,-369.19C430.96,-361.56 435.3,-352.37 439.34,-343.78"/>
<polygon fill="#53b6b6" stroke="black" points="442.49,-345.32 443.59,-334.78 436.16,-342.33 442.49,-345.32"/>
</g>
<!-- flask_ctx&#45;&gt;flask -->
<g id="edge17" class="edge">
<title>flask_ctx&#45;&gt;flask</title><style>.edge>path:hover{stroke-width:8}</style>
<path fill="none" stroke="black" d="M662.38,-602.13C673.83,-540.07 645.91,-521.06 662.38,-460.13"/>
<path fill="none" stroke="black" d="M629.06,-656.9C642.83,-644.12 658.73,-625.31 662.38,-604.13"/>
</g>
<!-- flask_ctx&#45;&gt;flask_globals -->
<g id="edge19" class="edge">
<title>flask_ctx&#45;&gt;flask_globals</title><style>.edge>path:hover{stroke-width:8}</style>
<path fill="none" stroke="black" d="M574.24,-650.22C564.33,-643.07 553.47,-635.23 543.56,-628.08"/>
<polygon fill="blue" stroke="black" points="572.01,-652.93 582.17,-655.94 576.11,-647.25 572.01,-652.93"/>
<polygon fill="blue" stroke="black" points="545.8,-625.38 535.64,-622.37 541.7,-631.06 545.8,-625.38"/>
</g>
<!-- flask_globals&#45;&gt;flask -->
<g id="edge20" class="edge">
<title>flask_globals&#45;&gt;flask</title><style>.edge>path:hover{stroke-width:8}</style>
<path fill="none" stroke="black" d="M510.38,-530.13C512.59,-499.1 509.41,-491.23 510.38,-460.13"/>
<path fill="none" stroke="black" d="M510.38,-458.13C511.4,-425.26 491.79,-420.57 486.38,-388.13"/>
</g>
<!-- flask_globals&#45;&gt;flask_blueprints -->
<g id="edge22" class="edge">
<title>flask_globals&#45;&gt;flask_blueprints</title><style>.edge>path:hover{stroke-width:8}</style>
<path fill="none" stroke="black" d="M510.38,-458.13C510.85,-443.03 517.28,-427.68 524.34,-415.22"/>
<polygon fill="blue" stroke="black" points="527.26,-417.15 529.51,-406.79 521.3,-413.48 527.26,-417.15"/>
</g>
<!-- flask_helpers -->
<g id="node12" class="node">
<title>flask_helpers</title><style>.edge>path:hover{stroke-width:8}</style>
<polygon fill="blue" stroke="black" points="482.13,-477.13 410.63,-477.13 410.63,-441.13 482.13,-441.13 482.13,-477.13"/>
<text text-anchor="middle" x="446.38" y="-455.26" font-family="Helvetica,sans-Serif" font-size="10.00" fill="white">flask.helpers</text>
</g>
<!-- flask_globals&#45;&gt;flask_helpers -->
<g id="edge24" class="edge">
<title>flask_globals&#45;&gt;flask_helpers</title><style>.edge>path:hover{stroke-width:8}</style>
<path fill="none" stroke="black" d="M510.38,-530.13C511.69,-511.77 499.65,-496.1 485.67,-484.26"/>
<polygon fill="blue" stroke="black" points="488.06,-481.69 478.01,-478.33 483.77,-487.22 488.06,-481.69"/>
<path fill="none" stroke="black" d="M509.69,-584.85C509.3,-570.67 509.1,-550.07 510.38,-532.13"/>
</g>
<!-- flask_json -->
<g id="node13" class="node">
<title>flask_json</title><style>.edge>path:hover{stroke-width:8}</style>
<polygon fill="blue" stroke="black" points="634.38,-477.13 576.38,-477.13 576.38,-441.13 634.38,-441.13 634.38,-477.13"/>
<text text-anchor="middle" x="605.38" y="-455.26" font-family="Helvetica,sans-Serif" font-size="10.00" fill="white">flask.json</text>
</g>
<!-- flask_globals&#45;&gt;flask_json -->
<g id="edge25" class="edge">
<title>flask_globals&#45;&gt;flask_json</title><style>.edge>path:hover{stroke-width:8}</style>
<path fill="none" stroke="black" d="M510.38,-530.13C512.41,-501.61 540.46,-483.39 565.56,-472.7"/>
<polygon fill="blue" stroke="black" points="566.61,-476.05 574.64,-469.13 564.05,-469.54 566.61,-476.05"/>
</g>
<!-- flask_globals&#45;&gt;flask_templating -->
<g id="edge26" class="edge">
<title>flask_globals&#45;&gt;flask_templating</title><style>.edge>path:hover{stroke-width:8}</style>
<path fill="none" stroke="black" d="M494.93,-584.98C473.55,-561.11 433.89,-516.38 401.38,-477.13 384.08,-456.25 365.09,-432.03 351.27,-414.13"/>
<polygon fill="blue" stroke="black" points="354.34,-412.39 345.47,-406.6 348.79,-416.66 354.34,-412.39"/>
</g>
<!-- flask_wrappers -->
<g id="node16" class="node">
<title>flask_wrappers</title><style>.edge>path:hover{stroke-width:8}</style>
<polygon fill="blue" stroke="black" points="618.25,-549.13 538.5,-549.13 538.5,-513.13 618.25,-513.13 618.25,-549.13"/>
<text text-anchor="middle" x="578.38" y="-527.26" font-family="Helvetica,sans-Serif" font-size="10.00" fill="white">flask.wrappers</text>
</g>
<!-- flask_globals&#45;&gt;flask_wrappers -->
<g id="edge27" class="edge">
<title>flask_globals&#45;&gt;flask_wrappers</title><style>.edge>path:hover{stroke-width:8}</style>
<path fill="none" stroke="black" d="M535.01,-576.77C541.12,-570.48 547.67,-563.74 553.78,-557.45"/>
<polygon fill="blue" stroke="black" points="532.7,-574.13 528.24,-583.74 537.72,-579.01 532.7,-574.13"/>
<polygon fill="blue" stroke="black" points="556.25,-559.94 560.71,-550.32 551.23,-555.06 556.25,-559.94"/>
</g>
<!-- flask_helpers&#45;&gt;flask -->
<g id="edge28" class="edge">
<title>flask_helpers&#45;&gt;flask</title><style>.edge>path:hover{stroke-width:8}</style>
<path fill="none" stroke="black" d="M486.38,-386.13C483.88,-371.14 477.01,-355.81 470.09,-343.33"/>
<polygon fill="blue" stroke="black" points="473.22,-341.74 465.13,-334.89 467.18,-345.29 473.22,-341.74"/>
<path fill="none" stroke="black" d="M464.8,-440.8C476.8,-427.4 489.67,-407.88 486.38,-388.13"/>
</g>
<!-- flask_helpers&#45;&gt;flask_app -->
<g id="edge29" class="edge">
<title>flask_helpers&#45;&gt;flask_app</title><style>.edge>path:hover{stroke-width:8}</style>
<path fill="none" stroke="black" d="M447.88,-477.37C452.04,-524.87 463.68,-658.11 468.85,-717.24"/>
<polygon fill="blue" stroke="black" points="465.36,-717.51 469.72,-727.17 472.33,-716.9 465.36,-717.51"/>
</g>
<!-- flask_helpers&#45;&gt;flask_blueprints -->
<g id="edge30" class="edge">
<title>flask_helpers&#45;&gt;flask_blueprints</title><style>.edge>path:hover{stroke-width:8}</style>
<path fill="none" stroke="black" d="M470.35,-440.83C482.36,-432.16 497.09,-421.53 510.17,-412.1"/>
<polygon fill="blue" stroke="black" points="512.05,-415.06 518.11,-406.37 507.95,-409.38 512.05,-415.06"/>
</g>
<!-- flask_helpers&#45;&gt;flask_templating -->
<g id="edge31" class="edge">
<title>flask_helpers&#45;&gt;flask_templating</title><style>.edge>path:hover{stroke-width:8}</style>
<path fill="none" stroke="black" d="M417.65,-440.65C403,-431.73 384.98,-420.76 369.21,-411.16"/>
<polygon fill="blue" stroke="black" points="371.39,-408.39 361.03,-406.18 367.75,-414.37 371.39,-408.39"/>
</g>
<!-- flask_json&#45;&gt;flask -->
<g id="edge33" class="edge">
<title>flask_json&#45;&gt;flask</title><style>.edge>path:hover{stroke-width:8}</style>
<path fill="none" stroke="black" d="M634.76,-440.88C653.13,-427.67 671.69,-408.35 662.38,-388.13"/>
<path fill="none" stroke="black" d="M662.38,-386.13C647.71,-354.3 547.3,-332.29 490.8,-322.27"/>
<polygon fill="blue" stroke="black" points="491.73,-318.88 481.28,-320.62 490.54,-325.77 491.73,-318.88"/>
</g>
<!-- flask_signals -->
<g id="node14" class="node">
<title>flask_signals</title><style>.edge>path:hover{stroke-width:8}</style>
<ellipse fill="#22e7e7" stroke="black" cx="471.38" cy="-819.13" rx="41.86" ry="18"/>
<text text-anchor="middle" x="471.38" y="-815.26" font-family="Helvetica,sans-Serif" font-size="10.00" fill="#000000">flask.signals</text>
</g>
<!-- flask_signals&#45;&gt;flask -->
<g id="edge35" class="edge">
<title>flask_signals&#45;&gt;flask</title><style>.edge>path:hover{stroke-width:8}</style>
<path fill="none" stroke="black" d="M662.38,-746.13C688.27,-688.58 651.68,-666.33 662.38,-604.13"/>
</g>
<!-- flask_signals&#45;&gt;flask_app -->
<g id="edge36" class="edge">
<title>flask_signals&#45;&gt;flask_app</title><style>.edge>path:hover{stroke-width:8}</style>
<path fill="none" stroke="black" d="M471.38,-800.83C471.38,-793.54 471.38,-784.86 471.38,-776.67"/>
<polygon fill="#22e7e7" stroke="black" points="474.88,-776.75 471.38,-766.75 467.88,-776.75 474.88,-776.75"/>
</g>
<!-- flask_signals&#45;&gt;flask_ctx -->
<g id="edge37" class="edge">
<title>flask_signals&#45;&gt;flask_ctx</title><style>.edge>path:hover{stroke-width:8}</style>
<path fill="none" stroke="black" d="M662.38,-746.13C670.06,-729.05 658.14,-712.45 643.45,-699.71"/>
<polygon fill="#22e7e7" stroke="black" points="645.8,-697.1 635.8,-693.62 641.45,-702.58 645.8,-697.1"/>
<path fill="none" stroke="black" d="M513.65,-818.26C562.05,-815.71 637.82,-802.73 662.38,-748.13"/>
</g>
<!-- flask_signals&#45;&gt;flask_helpers -->
<g id="edge38" class="edge">
<title>flask_signals&#45;&gt;flask_helpers</title><style>.edge>path:hover{stroke-width:8}</style>
<path fill="none" stroke="black" d="M306.38,-602.13C292.68,-546.84 354.44,-503.96 400.3,-480.38"/>
<polygon fill="#22e7e7" stroke="black" points="401.65,-483.62 409.04,-476.04 398.53,-477.35 401.65,-483.62"/>
</g>
<!-- flask_signals&#45;&gt;flask_templating -->
<g id="edge39" class="edge">
<title>flask_signals&#45;&gt;flask_templating</title><style>.edge>path:hover{stroke-width:8}</style>
<path fill="none" stroke="black" d="M450.65,-803.08C409.84,-771.68 321.7,-694.56 306.38,-604.13"/>
<path fill="none" stroke="black" d="M306.38,-602.13C283.47,-538.43 305.45,-457.84 320.29,-416.08"/>
<polygon fill="#22e7e7" stroke="black" points="323.54,-417.39 323.72,-406.8 316.98,-414.96 323.54,-417.39"/>
</g>
<!-- flask_templating&#45;&gt;flask -->
<g id="edge40" class="edge">
<title>flask_templating&#45;&gt;flask</title><style>.edge>path:hover{stroke-width:8}</style>
<path fill="none" stroke="black" d="M361.6,-368.65C377.86,-359.24 398.07,-347.55 415.28,-337.59"/>
<polygon fill="blue" stroke="black" points="416.8,-340.76 423.71,-332.72 413.3,-334.7 416.8,-340.76"/>
</g>
<!-- flask_wrappers&#45;&gt;flask -->
<g id="edge42" class="edge">
<title>flask_wrappers&#45;&gt;flask</title><style>.edge>path:hover{stroke-width:8}</style>
<path fill="none" stroke="black" d="M662.38,-458.13C670.5,-428.1 675.4,-416.39 662.38,-388.13"/>
<path fill="none" stroke="black" d="M615.62,-512.73C635.03,-501.09 656.03,-483.59 662.38,-460.13"/>
</g>
<!-- flask_wrappers&#45;&gt;flask_app -->
<g id="edge43" class="edge">
<title>flask_wrappers&#45;&gt;flask_app</title><style>.edge>path:hover{stroke-width:8}</style>
<path fill="none" stroke="black" d="M576.58,-549.37C575.51,-560.65 574.26,-576.01 573.67,-590.91"/>
<polygon fill="blue" stroke="black" points="570.18,-590.53 573.42,-600.62 577.18,-590.72 570.18,-590.53"/>
<path fill="none" stroke="black" d="M573.38,-604.13C573.93,-657.4 525.79,-704.37 495.45,-728.64"/>
</g>
<!-- flask_wrappers&#45;&gt;flask_blueprints -->
<g id="edge44" class="edge">
<title>flask_wrappers&#45;&gt;flask_blueprints</title><style>.edge>path:hover{stroke-width:8}</style>
<path fill="none" stroke="black" d="M574.08,-512.72C568.15,-488.64 557.36,-444.89 550.29,-416.17"/>
<polygon fill="blue" stroke="black" points="553.75,-415.59 547.96,-406.71 546.95,-417.26 553.75,-415.59"/>
</g>
<!-- flask_wrappers&#45;&gt;flask_ctx -->
<g id="edge45" class="edge">
<title>flask_wrappers&#45;&gt;flask_ctx</title><style>.edge>path:hover{stroke-width:8}</style>
<path fill="none" stroke="black" d="M573.38,-604.13C573.58,-623.59 584.31,-643.3 593.66,-656.83"/>
</g>
<!-- flask_wrappers&#45;&gt;flask_helpers -->
<g id="edge47" class="edge">
<title>flask_wrappers&#45;&gt;flask_helpers</title><style>.edge>path:hover{stroke-width:8}</style>
<path fill="none" stroke="black" d="M535.26,-507.27C520.37,-499.37 503.7,-490.53 488.86,-482.66"/>
<polygon fill="blue" stroke="black" points="533.6,-510.35 544.07,-511.94 536.88,-504.16 533.6,-510.35"/>
<polygon fill="blue" stroke="black" points="490.74,-479.7 480.26,-478.1 487.46,-485.88 490.74,-479.7"/>
</g>
<!-- flask_wrappers&#45;&gt;flask_json -->
<g id="edge48" class="edge">
<title>flask_wrappers&#45;&gt;flask_json</title><style>.edge>path:hover{stroke-width:8}</style>
<path fill="none" stroke="black" d="M589.14,-502.23C590.97,-497.48 592.88,-492.54 594.71,-487.8"/>
<polygon fill="blue" stroke="black" points="585.93,-500.83 585.6,-511.42 592.46,-503.35 585.93,-500.83"/>
<polygon fill="blue" stroke="black" points="597.9,-489.24 598.23,-478.65 591.37,-486.72 597.9,-489.24"/>
</g>
<!-- routes -->
<g id="node17" class="node">
<title>routes</title><style>.edge>path:hover{stroke-width:8}</style>
<ellipse fill="#7a49ac" stroke="black" cx="515.38" cy="-127" rx="27" ry="18"/>
<text text-anchor="middle" x="515.38" y="-123.12" font-family="Helvetica,sans-Serif" font-size="10.00" fill="#ffffff">routes</text>
</g>
<!-- routes&#45;&gt;app_py -->
<g id="edge49" class="edge">
<title>routes&#45;&gt;app_py</title><style>.edge>path:hover{stroke-width:8}</style>
<path fill="none" stroke="black" d="M491.49,-118.03C470.71,-109.52 444.97,-94.34 452.38,-73"/>
</g>
<!-- routes_algorithms&#45;&gt;routes -->
<g id="edge50" class="edge">
<title>routes_algorithms&#45;&gt;routes</title><style>.edge>path:hover{stroke-width:8}</style>
<path fill="none" stroke="black" d="M521.11,-180.68C520.29,-173.15 519.35,-164.51 518.47,-156.44"/>
<polygon fill="#7f4cb3" stroke="black" points="521.97,-156.28 517.41,-146.72 515.01,-157.04 521.97,-156.28"/>
</g>
<!-- routes_map&#45;&gt;routes -->
<g id="edge51" class="edge">
<title>routes_map&#45;&gt;routes</title><style>.edge>path:hover{stroke-width:8}</style>
<path fill="none" stroke="black" d="M601.49,-187.21C584.79,-175.72 561.23,-159.52 542.97,-146.97"/>
<polygon fill="#7f4cb3" stroke="black" points="545.18,-144.25 534.96,-141.46 541.22,-150.01 545.18,-144.25"/>
</g>
</g>
</svg>
